<?xml version="1.0" encoding="UTF-8"?><svg id="logo" xmlns="http://www.w3.org/2000/svg" viewBox="0 0 1908.47 757.91"><path d="M1900.18,6.79c0,50.26-.53,92.41.09,134.55,2.53,171.66,5.66,343.32,8.07,514.99,1.31,93.12-5.65,101.14-97.21,101.36-193.92.47-387.84.26-581.76-1.25-57.67-.45-64.29-10.34-65.18-68.42-1.43-93.2-3.49-186.39-5.41-279.58-.11-5.15-1.38-10.28-2.55-18.5-30.71,1.81-60.66,3.57-90.55,5.32,0,89.03-.22,175.58.15,262.12.09,22.22,2.32,44.43,3.07,66.66.75,22.25-10.15,33.41-32.72,33.06-24.37-.38-48.75-.27-73.13-.61-183.35-2.53-366.7-5.13-550.05-7.71-5.3-.07-10.61,0-15.89-.35-45.7-3.05-49.31-7.68-47.85-53.85,2.84-89.86,4.83-179.74,7.75-269.6.84-25.75-9.25-34.62-35.65-33.81-61.3,1.88-122.69.6-188.17.6-1.27,22.34-3.46,43-3.42,63.65.11,48.75,1.16,97.5,2.09,146.25.51,26.81-9.59,40.3-39.06,41.09-82.05,2.19-88.73-2.4-90.21-85.49C1.02,469.3,2.14,381.29.03,293.35c-.69-28.86,10.99-36.86,37.38-36.62,91.15.82,182.31.38,273.47.41,11.47,0,22.95,0,38.8,0,0-15.17,0-27.38,0-39.59-.03-58.28.09-116.56-.18-174.84-.08-16.42,5.08-24.74,23.7-25.21C588.23,12.16,803.24,6.3,1018.25.05c27.44-.8,40.48,8.43,41.19,37.83,1.53,63.52,7.11,126.95,8.15,190.47.54,33.01,22.43,35.14,44.46,36.11,21.95.97,42.2-3.03,42.31-33.74.24-63.55,3.22-127.09,3.14-190.63-.03-27.4,11.3-38.61,37.66-38.41,232.04,1.79,464.09,3.39,705.02,5.11ZM717.84,402.42c2,0,3.99,0,5.99,0,0-68.73-.05-137.46.03-206.19.03-21.63-7.92-32.7-32.14-32.15-57.13,1.3-114.31.88-171.45.16-18.55-.23-28.4,6.92-28.47,25.34-.51,133.23-.88,266.46-1.03,399.68-.02,17.31,7.88,27.13,27.03,27.55,57.13,1.26,114.27,2.95,171.35,5.68,22.6,1.08,29.43-7.91,29.06-29.73-1.06-63.43-.38-126.89-.38-190.34ZM1515.05,509.56c-.51,0-1.03-.02-1.54-.03-4.17-108.81-7.8-217.65-13.36-326.39-.53-10.4-12.72-28.54-20.18-28.89-49.53-2.36-99.39-3.13-148.83.15-36.44,2.42-46.03,16.51-45.49,54.87,1.63,116.32,3.79,232.64,6.18,348.95.26,12.56-.02,27.2,6.11,37.03,7.03,11.29,20.54,25.33,31.91,25.96,50.62,2.79,101.49.44,152.24,1.59,20.91.47,28.29-8.11,28.77-27.72.7-28.52,2.73-57.02,4.2-85.52Z" fill="currentColor" stroke-width="0"/></svg>