<?xml version="1.0" encoding="UTF-8"?><svg id="logo" xmlns="http://www.w3.org/2000/svg" viewBox="0 0 1697.41 311.94"><path d="M1697.41,299.18c-3.21,1.94-6.39,5.51-9.63,5.56-30.18.46-60.36.52-90.54.23-10.07-.1-10.65-1.29-10.68-11.2-.04-14.15,0-28.31,0-43.3-5.83.46-10.18.8-14.3,1.12,0,14.98-.28,29.36.1,43.73.24,9.02-.06,9.86-8.99,9.73-29.51-.44-59.03-.88-88.54-1.41-9.62-.17-9.45-.58-9.19-10.09.39-14.05.1-28.13.1-42.49h-32.61c0,8.75-.1,17.39.02,26.03.15,10.73-1.45,12.2-12.02,11.13-4.3-.44-6.65-2.44-6.73-6.81-.28-15.32-.52-30.64-.79-45.96-.07-4.32,2.95-4.42,6.01-4.42,12.62,0,25.24,0,37.85,0,2.42,0,4.84,0,7.67,0,0-9.27-.09-17.76.02-26.24.12-9.33.2-9.41,9.31-9.66,29.05-.8,58.09-1.68,87.15-2.2,9.03-.16,9.1.31,9.6,9.49.43,7.87.8,15.75.97,23.63.11,4.95,3.04,5.92,7.14,5.88,4.23-.04,5.96-1.95,5.92-6.25-.09-8.79.18-17.57.29-26.36.04-3.57,1.02-6.09,5.34-6.02,34.01.5,68.02.93,102.04,1.41.63,0,1.25.41,3.04,1.05,0,6.37-.03,13.08,0,19.79.1,17.58.17,35.16.38,52.73.04,3.09.69,6.18,1.06,9.26v21.64ZM1518.94,252.94c.38,0,.76,0,1.14,0,0-9.68-.04-19.36.02-29.03.02-3.83-1.33-5.85-5.54-5.75-8.1.18-16.23-.22-24.31.27-1.76.11-4.79,2.93-4.82,4.54-.37,18.9-.41,37.8-.1,56.7.03,1.64,2.97,4.46,4.77,4.64,7.83.79,15.74.67,23.61,1.17,4.27.27,5.41-1.48,5.3-5.52-.24-9-.08-18.01-.08-27.02ZM1639.21,267.16c-.67,0-1.34,0-2.01,0,0-15.31.12-30.62-.17-45.92-.03-1.71-2.33-4.72-3.75-4.83-6.71-.52-13.48-.37-20.22-.2-5.54.13-7.83,3.05-7.64,8.74.53,15.32.6,30.65,1,45.97.38,14.19.46,14.19,14.88,14.19q17.99,0,17.91-17.94Z" fill="currentColor" stroke-width="0"/><path d="M0,2.92c6.68-.1,13.37-.35,20.05-.26,34.25.49,68.49,1.03,102.74,1.66,5.62.1,11.24.66,16.86,1.06,5.2.37,7.55,3.43,7.8,8.41.03.68.04,1.35.06,2.03q.3,13.33,13.16,14.23c8.84.62,11.45,3.31,11.46,12.23.03,26.82.02,53.64-.05,80.46-.02,9.18-.94,10.07-10.12,10.14-12.17.1-24.34.15-36.5.06-7.44-.05-8.99-1.73-9.13-9.26-.48-25.46-.89-50.91-1.43-76.37-.22-10.25-.83-10.77-10.79-10.79-14.65-.03-29.29-.07-43.94.08-9.09.09-11.42,2.29-11.26,11.19.42,23.66.93,47.32,1.74,70.96.43,12.55-.33,13.75-12.62,13.98-9.01.16-18.03.13-27.03.47-4.95.19-8.76-1.15-10.98-5.83V2.92Z" fill="#000" stroke-width="0"/><path d="M338.96,105.62c.51,4.68.77,8.03,1.26,11.34,1.29,8.76-.18,10.7-8.92,10.6-27.94-.32-55.87-.84-83.81-1.08-7.87-.07-15.74.55-23.61.88-8.09.34-10.64-1.8-11.46-9.67q-1.47-14.15-15.98-14.34c-8.97-.11-9.59-.62-9.69-9.64-.2-18.69-.51-37.39-.29-56.08.11-9.63,2.23-11.24,11.77-11.52,2.03-.06,4.06-.17,6.08-.09,4.23.17,6.25-1.91,6.39-6.02.03-.9.04-1.8.05-2.7.19-16.28.18-15.79,16.09-15.45,33.32.72,66.65.93,99.98,1.22,11.33.1,11.89.44,12.14,11.58.25,11.47,1.47,12.66,13.05,12.64,9.56-.02,11.56,1.18,11.42,10.6-.32,20.49-1.42,40.96-2.24,61.44-.18,4.58-3.18,6.18-7.25,6.27-4.68.1-9.35.02-14.99.02Z" fill="#000" stroke-width="0"/><path d="M1098.39,32.12c6.27-1.14,12-2.27,17.76-3.21,8-1.3,10.66.7,10.5,8.64-.24,12.39-.74,24.78-1.48,37.15-.5,8.36-4.03,11.51-12.5,11.93-3.55.17-7.13.03-11.01.03-.66,4.3-1.3,8.02-1.78,11.76-.57,4.38-3.06,6.26-7.37,6.09-6.53-.26-13.06-.72-19.59-.67-22.89.18-45.79.55-69.72.86,0,13.06.09,24.26-.03,35.45-.11,10.33-1.1,11.01-11.22,11.37-9.66.35-19.33.9-28.93,1.91-4.71.5-6.73-.8-6.93-5.53-1.92-45.03-3.95-90.05-5.84-135.08-.33-7.83,1.41-9.78,9.37-9.65,43.71.7,87.41,1.61,131.12,2.45,5.24.1,7.82,2.63,7.68,8.02-.15,5.8-.03,11.61-.03,18.47Z" fill="#000" stroke-width="0"/><path d="M1545.81,107.49c-5.6.48-10.32.72-15,1.31-6.77.86-8.85-2.81-8.83-8.7.06-14.64.05-29.29.24-43.93.08-6.3.73-12.6.84-18.91.11-5.95,2.53-9.27,8.82-9.42,5.15-.12,10.3-.61,16.53-1,0-5.02.05-9.89-.01-14.76-.07-5.31,2.4-7.89,7.79-7.81,36.26.53,72.53,1.02,108.8,1.53,5.43.08,8.21,2.74,8.41,8.33.19,5.58.77,11.14,1.21,17.13,2.75,0,5.17.06,7.58-.01,10.77-.33,11.16-.16,12.08,10.27.84,9.65,1.45,19.32,1.84,29,.32,7.98-1.04,9.53-9.2,9.88-30.61,1.32-61.23,2.34-91.83,3.68-5.52.24-10.99,1.44-17.15,2.29.77,5.37,1.39,9.76,2.12,14.83,4.47.41,8.9,1.25,13.3,1.15,22.95-.47,45.89-1.07,68.83-1.86,7.54-.26,9.94,1.04,11.16,8.36.89,5.32,1.35,10.72,1.87,16.1.85,8.68-.83,10.63-9.45,10.43-20.72-.49-41.43-1.23-62.15-1.66-13.74-.28-27.49.05-41.22-.32-12.07-.32-14.37-2.89-15.25-14.85-.26-3.55-.83-7.08-1.32-11.09Z" fill="#000" stroke-width="0"/><path d="M1260.51,35.83c-22.58-.47-44.36-1.01-66.14-1.31-6.98-.1-14.01.06-20.94.8-6.01.64-8.31-1.95-8.58-7.42-.23-4.73-.45-9.46-.67-14.18-.25-5.39,2.45-7.93,7.72-7.9,37.18.26,74.36.46,111.54.85,7.91.08,9.43,1.87,9.64,9.69.13,4.71.02,9.43.02,14.98,3.76.51,7.22,1.03,10.69,1.43,7.77.89,9.27,2.63,9.28,11.05.04,20.51-.04,41.02.17,61.53.07,7.2.95,14.39,1.23,21.6.28,7.28-1.56,9.57-8.92,9.49-15.55-.18-31.08-1.13-46.63-1.29-24.79-.25-49.58-.22-74.37-.11-14.68.06-16.2-1.09-17.76-15.48-.34-3.11-.7-6.22-1.15-10.21-5.02.49-9.85.98-14.68,1.43-6.65.61-9.13-1.16-9.11-7.56.02-6.75.27-13.58,1.47-20.19.4-2.2,3.76-4.85,6.23-5.47,4.97-1.26,10.25-1.26,16.06-1.85,0-3.7.23-7.43-.04-11.13-.7-9.54,1.02-11.7,10.76-11.64,17.58.1,35.16.44,52.74.72,7.89.12,15.8.05,23.66.59,5.78.4,8.51-1.35,7.84-7.46-.31-2.87-.05-5.81-.05-10.95Z" fill="#000" stroke-width="0"/><path d="M815.91,35.66c-.05,11.04-.05,11.3,9.2,11.44,23.21.35,46.42.44,69.62.66,9.98.09,11.2,1.16,12.13,11.02.46,4.91.62,9.85.98,15.71,6.15,0,12.15.14,18.15-.04,5.66-.17,8.36,2.18,8.23,7.98-.1,4.5.23,9.01.32,13.51.11,5.47-2.5,8.38-8.06,8.64-4.25.2-8.5.58-13.44.93,0,5.52,0,10.64,0,15.76-.03,14.27-.39,14.86-14.31,14.23-29.71-1.36-59.39-3.12-89.1-4.51-12.6-.59-25.22-.62-37.84-.94-8.9-.22-10.75-1.96-10.28-10.94,1.33-25.37,3.44-22.59,23.11-22.89,28.16-.42,56.31-1.28,84.47-1.99,2.45-.06,4.9-.37,8.39-.64,0-3.54-.24-6.83.06-10.08.41-4.4-1.43-6.23-5.71-6.17-15.97.23-31.95.28-47.92.66-9.46.23-18.89,1.05-28.35,1.42-7.45.29-10.03-2.08-11-9.67-.57-4.46-1.05-8.92-1.68-14.31-4.04.38-7.97.67-11.88,1.15-5.68.69-9.2-1.23-9.65-7.39-.39-5.39-1.15-10.76-1.32-16.15-.21-6.38,2.16-8.48,8.59-8.11,4.49.25,8.97.7,13.46,1,.39.03.8-.32,1.52-.63,0-4.98.1-10.1-.02-15.21-.17-7.02,2.05-9.53,9.02-9.53,35.36-.03,70.73-.08,106.09,0,12.06.03,13.09,1.29,12.52,13.34q-.77,16.29-16.86,17.08c-20.93,1.02-41.85,1.99-62.78,3.1-5.12.27-10.22,1-15.65,1.55Z" fill="#000" stroke-width="0"/><path d="M469.67,133.35c-9.53,0-28.22.02-46.91-.02-3.15,0-6.29-.3-9.44-.48-6.08-.34-8.83-3.87-8.99-9.66-.13-4.5-.02-9.01-.14-13.51-.1-3.73-1.84-5.7-5.87-5.75-4.72-.07-9.43-.85-14.14-.9-6.11-.06-8.25-2.96-8.08-8.89.62-22.52,1.03-45.04,1.37-67.56.08-5.17-.58-10.35-.67-15.52-.13-7.13,2.04-9.63,9.03-9.63,13.06-.01,26.12.36,39.19.51,5.99.07,8.5,2.89,8.01,8.9-.83,10.32-1.96,20.66-1.92,30.98.06,16.62.76,33.25,1.79,49.83.12,2.01,3.94,5.45,5.99,5.41,17.53-.31,35.07-1.02,52.55-2.38,2.15-.17,5.57-4.85,5.64-7.51.6-23.19.74-46.39.62-69.59-.04-8.6-.13-9.02,8.65-9.65,9.88-.72,19.75-1.48,29.63-2.22,12.45-.94,16.11,2.36,15.7,14.74-.89,27.24-2.06,54.48-2.87,81.72-.19,6.27.27,12.61,1.06,18.84,1.01,7.85.35,9.49-7.54,9.84-21.15.94-42.31,1.5-72.65,2.52Z" fill="#000" stroke-width="0"/><path d="M720.86,28.55c4.89,0,8.75.38,12.51-.08,6.68-.82,8.75,2.29,8.84,8.44.33,23.21.88,46.41,1.36,69.61.05,2.25.11,4.51.23,6.76.74,13.81.74,13.85-12.88,14.25-10.13.3-20.27.55-30.41.68-10.05.13-12.05-1.76-11.94-11.65.27-23.88.7-47.76,1.05-71.64.05-3.36,0-6.72,0-11.58h-67.18c0,1.31-.03,3.72,0,6.13.33,25.9.65,51.81,1.03,77.71.14,9.64.11,9.84-9.38,10.59-10.1.8-20.22,1.5-30.33,2.11-9.37.56-11.48-1.4-11.61-11.09-.38-27.04-.66-54.08-.97-81.11-.1-8.79-.29-17.58-.23-26.36.06-8.61,2.69-11.4,11.4-11.3,42.35.52,84.7,1.12,127.05,1.89,9.47.17,11.26,2.38,11.44,11.91.09,4.68.02,9.36.02,14.75Z" fill="#000" stroke-width="0"/><path d="M1389.46,39.51c-.49,18.27-.9,36.01-1.48,53.75-.14,4.31,2.06,5.42,5.77,5.45,11.71.08,23.42.35,35.13.33,22.07-.03,44.15-.29,66.22-.31,9.08,0,9.93.86,10.82,9.91.46,4.7.52,9.44.88,14.16.42,5.5-2.08,7.87-7.53,7.7-11.71-.37-23.42-.9-35.13-.84-26.57.14-53.13.62-79.69.93-6.08.07-12.16-.11-18.24.03-5.73.14-8.05-2.68-8.27-8.19-.22-5.56-.89-11.1-1.41-17.16-5.71,1.64-10.62,3.25-15.62,4.43-7,1.66-9.31.26-9.61-6.98-.58-13.71-.65-27.45-.69-41.18-.02-8.56.43-17.11.61-25.67.12-5.78,2.85-8.36,8.78-8.6,13.71-.56,13.7-.75,13.5-14.58-.11-7.47,1.41-9.38,8.94-9.29,45.27.59,90.54,1.37,135.81,1.99,5.98.08,8.65,2.76,8.54,8.66-.1,4.95-.13,9.92.12,14.87.32,6.19-2.7,8.56-8.54,8.39-10.58-.31-21.17-.88-31.75-.7-22.74.38-45.47,1.13-68.2,1.8-2.45.07-4.89.59-8.95,1.1Z" fill="#000" stroke-width="0"/><path d="M1186.2,242.11c.25-12.53.23-13.13,12.6-13.52,17.49-.56,35.01-.14,53.12-.14.35,4.79.67,9.17,1.03,14.11,3.09.55,6.13,1.1,10.03,1.8v40.57c-3.44.38-6.92.77-10.9,1.22,1.01,10.18-6.14,9.83-12.73,9.76-14.4-.15-28.8-.62-43.2-.81-4.9-.06-7.73-1.94-7.65-7.12.06-3.94-1.99-5.56-5.77-5.71-4.76-.2-6.58-3.09-6.6-7.59-.05-9-.39-18.01-.1-27,.05-1.64,2.26-3.69,3.97-4.66,1.59-.9,3.86-.61,6.22-.9Z" fill="#000" stroke-width="0"/><path d="M585.62,274.51c-.46,3.35-.95,6.87-1.53,11.12-11.78,0-23.64.03-35.51,0-12.24-.04-12.81.53-11.87,12.45.98,12.33-.28,13.73-12.49,13.85-5.15.05-10.29,0-15.85,0-.25-2.3-.62-4.02-.61-5.74.2-21.41.41-42.82.71-64.23.12-8.03,1.09-8.65,9.11-8.87,17.11-.48,34.22-1.1,51.32-1.82,10.75-.45,11.17-.25,13.53,10.17.35.26.68.7,1.06.75q12.93,1.61,12.91,14.86c0,1.8-.02,3.61-.06,5.41q-.22,10.22-10.72,12.06Z" fill="#000" stroke-width="0"/><path d="M711.26,283.9c-3.89-.5-7.19-.92-10.82-1.39-.29-4.15-.56-8.11-.86-12.42,2.53-.67,4.63-1.5,6.79-1.74,3.54-.39,5.46-1.74,4.68-5.62-1.06-5.29,1.93-6.59,6.48-6.88,11.67-.74,23.33-1.77,35-2.55,2.91-.19,6-.38,5.08-4.13-.35-1.43-3.47-3.09-5.33-3.08-12.15.08-24.29.63-36.43.93-4.9.12-9.05-.75-8.87-7.23.17-6.2,2.31-8.48,9.39-8.54,16.65-.15,33.31-.07,49.96-.26,4.86-.06,7.89,1.29,7.56,6.78-.22,3.66,1.41,5.4,5.23,5.1,1.98-.15,3.99.16,6.78.3.4,5.3.88,10.38,1.16,15.47.53,9.66,1.03,19.33,1.39,29,.33,8.71-1.03,10.11-9.98,10.16-13.94.08-27.88-.07-41.82.06-5.17.05-10.33.76-15.5.88-8.76.21-9.51-.65-9.6-9.5-.02-1.56-.16-3.11-.27-5.34Z" fill="#000" stroke-width="0"/><path d="M332.71,287.92c-2.45,0-3.79,0-5.13,0-4.56-.03-9.17.46-9.67-6.31-.65-8.7.06-9.98,7.5-12.33,1.58-.5,3.68-2.77,3.7-4.24.04-5.38,2.83-6.85,7.54-6.95,11.91-.24,23.82-.85,35.73-.89,4.43-.02,7.05-.94,6.42-6.92-2.9-.34-6.13-1.05-9.36-1.02-10.35.11-20.7.61-31.05.72-6.53.07-11.97-7.64-9.36-13.51.69-1.54,3.45-2.95,5.34-3.05,17.29-.91,34.59-1.5,51.89-2.22,5.48-.23,7.98,2.49,7.55,7.79-.34,4.24.86,6.63,5.51,7.45,1.59.28,3.82,3.24,3.85,5,.23,14.18,0,28.36-.08,42.54-.03,4.54-2.64,6.51-6.83,6.6-19.35.41-38.7.75-58.05,1.09-3.97.07-5.72-1.95-5.53-5.88.11-2.43.02-4.87.02-7.89Z" fill="#000" stroke-width="0"/><path d="M901.47,244.5c1.76-13.72,1.74-13.23,15.79-12.55,10.29.5,20.68-.22,30.99-.89,13.77-.89,13.76-1.1,15.99,12.1.18.13.35.31.56.38,3.89,1.31,10.61,1.88,11.16,4.03,1.79,7.05,1.72,14.69,1.4,22.06-.05,1.24-4.91,3.22-7.55,3.24-15.3.08-30.6-.34-45.9-.58-2.39-.04-4.79,0-7.92,0,.4,3.12.68,5.24,1.12,8.72,13.56,0,26.99-.02,40.42,0,6.43.01,11.96,7.44,9.68,13.57-.55,1.47-3.36,2.92-5.16,2.96-5.38.12-10.77-.67-16.16-.72-11.24-.1-22.52-.45-33.71.28-8.24.54-10.43,1.12-10.52-8.05-.01-1.31-.64-2.61-1.11-4.43-9.11,1.78-10.2-4.49-10.48-11.12-.29-6.94,0-13.91-.27-20.85-.22-5.81,2.26-8.29,8.02-7.7,1.07.11,2.19-.26,3.68-.45Z" fill="#000" stroke-width="0"/><path d="M805.58,243.12c.32-2.97.65-6.05,1.05-9.68,1.68-.2,3.38-.57,5.08-.57,21.62-.04,43.24.17,64.85-.16,5.75-.09,7.01,2.48,6.85,7.25-.15,4.52-.29,8.33-6.85,7.98-13.03-.7-26.11-.76-39.16-.88-5.34-.05-10.69.43-16.37.69v30.34c5.73,0,11.49-.08,17.24.02,12.15.2,24.3.62,36.46.68,4.47.02,6.19,1.63,6.58,6.21,1.15,13.57.72,14.87-12.52,15-19.35.18-38.71-.54-58.07-.81-4.28-.06-6.15-2.11-5.94-6.31.08-1.75.01-3.5.01-5.69-3.63-.16-6.7-.29-10.62-.47-.33-2.89-.94-5.68-.91-8.46.07-6.98.48-13.95.67-20.93q.33-12.11,11.65-14.2Z" fill="#000" stroke-width="0"/><path d="M1144.85,225.07c-1.59,4.95-.24,6.95,4.58,6.36,4.47-.54,8.97-.84,13.45-1.25,7.26-.66,6.98,4.49,7.35,9.34.36,4.72.15,8.3-6.28,8.25-6.49-.04-12.99.96-20.46,1.59.42,7.03.8,13.89,1.26,20.74.4,6.07.81,12.14,1.37,18.19.44,4.79-1.56,7.15-6.38,7.43-23.82,1.37-21.43,5.07-22.53-19.19-.39-8.49-.06-17.01-.06-26.22h-23.6c-.51-.91-.68-1.09-.72-1.3-3.13-16.2-1.86-17.83,14.43-18.72,2.9-.16,5.79-.32,9.33-.52.22-2.48-.12-4.88.74-6.71.93-2,2.79-4.66,4.57-4.94,3.85-.61,5.06-2.34,6.08-5.87.59-2.05,3.51-4.74,5.52-4.86,9.43-.56,18.91-.34,28.37-.38,4.17-.02,7.18,1.27,6.61,6.24-.51,4.43.97,9.99-6.47,10.27-5.6.22-11.18.98-17.12,1.53Z" fill="#000" stroke-width="0"/><path d="M639.09,278.45c0-14.99.09-29.81-.16-44.62-.02-1.21-2.21-3.14-3.67-3.46-10.18-2.24-10.54-2.58-9.48-13.15.24-2.43.55-4.85.9-7.93,11.05-.72,21.8-1.51,32.56-2.08,4.55-.24,4.63,3.3,4.86,6.54,1.4,19.09,3.05,38.17,4.1,57.28.35,6.45,2.15,9.73,9.1,8.43,1.74-.33,3.64.2,5.39-.09,6.1-1.01,8.76,1.54,9.98,7.57,1.85,9.15.96,10.85-8.39,10.85-19.98,0-39.97-.04-59.95-.12-6.99-.03-9-2.63-9.51-10.84-.39-6.36,3.96-6.7,8.34-7.12,4.66-.45,9.34-.75,15.94-1.26Z" fill="#000" stroke-width="0"/><path d="M1318.67,242v-12.69c12.3,0,24.29-.28,36.27.12,5.95.2,4.01,5.44,4.19,8.91.22,4.11-.64,7.91-5.88,8.07-7.19.23-14.4.26-21.59.34-2.87.04-5.74,0-9.36,0,2.35,8.94-.22,14.12-10.46,12.88.72,11.48,1.39,22.22,2.17,34.7-8.69.41-17.26.96-25.84,1-1.03,0-2.89-2.74-2.97-4.28-.94-18.44-1.62-36.88-2.36-55.33-.16-3.93,1.63-5.7,5.7-5.59,4.27.11,8.58.05,12.81-.46,6.19-.74,9.59,1.18,9.15,7.91-.09,1.32.15,2.66.26,4.4h7.92Z" fill="#000" stroke-width="0"/></svg>